<svg width="25" height="24" viewBox="0 0 25 24" fill="none" xmlns="http://www.w3.org/2000/svg">
<g clip-path="url(#clip0_4_105)">
<path d="M10 12C10 12.5304 10.2107 13.0391 10.5858 13.4142C10.9609 13.7893 11.4696 14 12 14C12.5304 14 13.0391 13.7893 13.4142 13.4142C13.7893 13.0391 14 12.5304 14 12C14 11.4696 13.7893 10.9609 13.4142 10.5858C13.0391 10.2107 12.5304 10 12 10C11.4696 10 10.9609 10.2107 10.5858 10.5858C10.2107 10.9609 10 11.4696 10 12Z" stroke="#8A3FFC" stroke-width="1.2" stroke-linecap="round" stroke-linejoin="round"/>
<path d="M12 18C8.4 18 5.4 16 3 12C5.4 8 8.4 6 12 6C15.6 6 18.6 8 21 12" stroke="#8A3FFC" stroke-width="1.2" stroke-linecap="round" stroke-linejoin="round"/>
</g>
<path d="M22 21C22.2652 21 22.5196 21.1054 22.7071 21.2929C22.8946 21.4804 23 21.7348 23 22C23 21.7348 23.1054 21.4804 23.2929 21.2929C23.4804 21.1054 23.7348 21 24 21C23.7348 21 23.4804 20.8946 23.2929 20.7071C23.1054 20.5196 23 20.2652 23 20C23 20.2652 22.8946 20.5196 22.7071 20.7071C22.5196 20.8946 22.2652 21 22 21ZM22 15C22.2652 15 22.5196 15.1054 22.7071 15.2929C22.8946 15.4804 23 15.7348 23 16C23 15.7348 23.1054 15.4804 23.2929 15.2929C23.4804 15.1054 23.7348 15 24 15C23.7348 15 23.4804 14.8946 23.2929 14.7071C23.1054 14.5196 23 14.2652 23 14C23 14.2652 22.8946 14.5196 22.7071 14.7071C22.5196 14.8946 22.2652 15 22 15ZM18.5 21C18.5 20.2044 18.8161 19.4413 19.3787 18.8787C19.9413 18.3161 20.7044 18 21.5 18C20.7044 18 19.9413 17.6839 19.3787 17.1213C18.8161 16.5587 18.5 15.7956 18.5 15C18.5 15.7956 18.1839 16.5587 17.6213 17.1213C17.0587 17.6839 16.2956 18 15.5 18C16.2956 18 17.0587 18.3161 17.6213 18.8787C18.1839 19.4413 18.5 20.2044 18.5 21Z" stroke="#8A3FFC" stroke-linecap="round" stroke-linejoin="round"/>
<defs>
<clipPath id="clip0_4_105">
<rect width="24" height="24" fill="white"/>
</clipPath>
</defs>
</svg>
